<svg width="95" height="69" viewBox="0 0 95 69" fill="none" xmlns="http://www.w3.org/2000/svg">
<path d="M91.7 13.3H62.2C60.5 13.3 59.1 11.9 59.1 10.2C59.1 8.50001 60.5 7.10001 62.2 7.10001H91.7C93.4 7.10001 94.8 8.50001 94.8 10.2C94.7 11.9 93.3 13.3 91.7 13.3Z" fill="white"/>
<path d="M32.7 13.3H3.1C1.4 13.3 0 11.9 0 10.2C0 8.50001 1.4 7.10001 3.1 7.10001H32.6C34.3 7.10001 35.7 8.50001 35.7 10.2C35.7 11.9 34.3 13.3 32.7 13.3Z" fill="white"/>
<path d="M22.3 4.4C22.3 2 20.3 0 17.9 0C15.5 0 13.5 2 13.5 4.4C13.5 4.5 13.5 4.6 13.5 4.7H22.3C22.3 4.6 22.3 4.5 22.3 4.4Z" fill="white"/>
<path d="M72.5 18.8C72.5 19.7 72.5 20.6 72.6 21.4C60.5 20.6 61.3 15.5 47.5 15.5H47.4H47.3C33.4 15.5 34.2 20.6 22.2 21.4C22.3 20.6 22.3 19.7 22.3 18.8C22.3 18 22.3 17 22.3 16H13.5C13.5 17 13.5 18 13.5 18.8C13.5 26.3 15.5 30.3 17.9 30.3C19.1 30.3 20.2 29.3 21 27.4H30.3C31.7 27.4 38.8 31.5 39.3 39.9C39.6 43.3 40.8 43.3 42.7 43.3H52.1C54 43.3 55.1 43.3 55.5 39.9C56 31.5 63.1 27.4 64.5 27.4C65.9 27.4 73.8 27.4 73.8 27.4C74.6 29.3 75.7 30.3 76.9 30.3C79.3 30.3 81.3 26.3 81.3 18.8C81.3 18 81.3 17 81.3 16H72.5C72.5 17 72.5 18 72.5 18.8Z" fill="white"/>
<path d="M76.9 0C74.5 0 72.5 2 72.5 4.4C72.5 4.5 72.5 4.6 72.5 4.7H81.3C81.3 4.6 81.3 4.5 81.3 4.4C81.3 2 79.3 0 76.9 0Z" fill="white"/>
<path d="M75.8 68.2C75.7 68.2 75.5 68.2 75.4 68.2C73.8 68 72.6 66.4 72.9 64.8C76 42.9 62.5 37.9 62.3 37.8C61.1 36.7 61 34.8 62.2 33.6C63.3 32.4 65.2 32.3 66.4 33.5C67.1 34.1 82.4 40.7 78.8 65.7C78.5 67.1 77.2 68.2 75.8 68.2Z" fill="white"/>
<path d="M19.8 68.2C19.9 68.2 20.1 68.2 20.2 68.2C21.8 68 23 66.4 22.7 64.8C19.6 42.9 33.1 37.9 33.3 37.8C34.5 36.7 34.6 34.8 33.4 33.6C32.3 32.4 30.4 32.3 29.2 33.5C28.5 34.1 13.2 40.7 16.8 65.7C17 67.1 18.3 68.2 19.8 68.2Z" fill="white"/>
<path d="M52.9 46.8H41.9C40.6 46.8 39.5 47.9 39.5 49.2V56C39.5 57.3 40.6 58.4 41.9 58.4H52.8C54.1 58.4 55.2 57.3 55.2 56V49.2C55.3 47.9 54.2 46.8 52.9 46.8ZM47.4 55.3C45.9 55.3 44.7 54.1 44.7 52.6C44.7 51.1 45.9 49.9 47.4 49.9C48.9 49.9 50.1 51.1 50.1 52.6C50.1 54.1 48.9 55.3 47.4 55.3Z" fill="white"/>
</svg>
