<svg width="138" height="30" viewBox="0 0 138 30" fill="none" xmlns="http://www.w3.org/2000/svg">
<path d="M40.5156 5.99684H27.6177C26.8745 5.99684 26.2624 5.38474 26.2624 4.64147C26.2624 3.8982 26.8745 3.2861 27.6177 3.2861H40.5156C41.2589 3.2861 41.871 3.8982 41.871 4.64147C41.8272 5.38474 41.2151 5.99684 40.5156 5.99684Z" fill="white"/>
<path d="M14.7198 5.99684H1.77825C1.03498 5.99684 0.422882 5.38474 0.422882 4.64147C0.422882 3.8982 1.03498 3.2861 1.77825 3.2861H14.6761C15.4194 3.2861 16.0315 3.8982 16.0315 4.64147C16.0315 5.38474 15.4194 5.99684 14.7198 5.99684Z" fill="white"/>
<path d="M10.1728 2.10562C10.1728 1.0563 9.29837 0.18187 8.24905 0.18187C7.19973 0.18187 6.3253 1.0563 6.3253 2.10562C6.3253 2.14934 6.3253 2.19306 6.3253 2.23678H10.1728C10.1728 2.19306 10.1728 2.14934 10.1728 2.10562Z" fill="white"/>
<path d="M32.121 8.40154C32.121 8.79503 32.121 9.18853 32.1648 9.5383C26.8744 9.18853 27.2242 6.95872 21.1906 6.95872H21.1469H21.1032C15.0259 6.95872 15.3757 9.18853 10.1291 9.5383C10.1728 9.18853 10.1728 8.79503 10.1728 8.40154C10.1728 8.05177 10.1728 7.61455 10.1728 7.17733H6.3253C6.3253 7.61455 6.3253 8.05177 6.3253 8.40154C6.3253 11.6807 7.19973 13.4295 8.24905 13.4295C8.77371 13.4295 9.25465 12.9923 9.60442 12.1616H13.6705C14.2826 12.1616 17.3869 13.9542 17.6055 17.6268C17.7366 19.1133 18.2613 19.1133 19.092 19.1133H23.2018C24.0325 19.1133 24.5135 19.1133 24.6884 17.6268C24.907 13.9542 28.0112 12.1616 28.6233 12.1616C29.2354 12.1616 32.6894 12.1616 32.6894 12.1616C33.0392 12.9923 33.5201 13.4295 34.0448 13.4295C35.0941 13.4295 35.9685 11.6807 35.9685 8.40154C35.9685 8.05177 35.9685 7.61455 35.9685 7.17733H32.121C32.121 7.61455 32.121 8.05177 32.121 8.40154Z" fill="white"/>
<path d="M34.0448 0.18187C32.9955 0.18187 32.121 1.0563 32.121 2.10562C32.121 2.14934 32.121 2.19306 32.121 2.23678H35.9685C35.9685 2.19306 35.9685 2.14934 35.9685 2.10562C35.9685 1.0563 35.0941 0.18187 34.0448 0.18187Z" fill="white"/>
<path d="M33.5638 30C33.5201 30 33.4327 30 33.389 30C32.6894 29.9126 32.1648 29.213 32.2959 28.5135C33.6513 18.9384 27.7489 16.7524 27.6614 16.7086C27.1368 16.2277 27.093 15.397 27.6177 14.8723C28.0986 14.3477 28.9294 14.304 29.454 14.8286C29.7601 15.0909 36.4495 17.9766 34.8755 28.907C34.7443 29.5191 34.1759 30 33.5638 30Z" fill="white"/>
<path d="M9.07975 30C9.12347 30 9.21092 30 9.25464 30C9.95418 29.9126 10.4788 29.213 10.3477 28.5135C8.99231 18.9384 14.8947 16.7524 14.9822 16.7086C15.5068 16.2277 15.5505 15.397 15.0259 14.8723C14.545 14.3477 13.7142 14.304 13.1896 14.8286C12.8835 15.0909 6.19413 17.9766 7.7681 28.907C7.85555 29.5191 8.42393 30 9.07975 30Z" fill="white"/>
<path d="M23.5516 20.6436H18.7422C18.1739 20.6436 17.6929 21.1245 17.6929 21.6929V24.666C17.6929 25.2343 18.1739 25.7153 18.7422 25.7153H23.5079C24.0763 25.7153 24.5572 25.2343 24.5572 24.666V21.6929C24.6009 21.1245 24.12 20.6436 23.5516 20.6436ZM21.1469 24.3599C20.4911 24.3599 19.9664 23.8352 19.9664 23.1794C19.9664 22.5236 20.4911 21.9989 21.1469 21.9989C21.8027 21.9989 22.3274 22.5236 22.3274 23.1794C22.3274 23.8352 21.8027 24.3599 21.1469 24.3599Z" fill="white"/>
<path d="M45.333 24V9.07031H49.9268C51.2393 9.07031 52.4116 9.36768 53.4438 9.9624C54.4829 10.5503 55.293 11.3911 55.874 12.4849C56.4551 13.5718 56.7456 14.8091 56.7456 16.1968V16.8838C56.7456 18.2715 56.4585 19.5054 55.8843 20.5854C55.3169 21.6655 54.5137 22.5029 53.4746 23.0977C52.4355 23.6924 51.2632 23.9932 49.9575 24H45.333ZM48.4092 11.562V21.5288H49.896C51.0991 21.5288 52.0186 21.1357 52.6543 20.3496C53.29 19.5635 53.6147 18.439 53.6284 16.9761V16.1865C53.6284 14.6689 53.314 13.5205 52.6851 12.7412C52.0562 11.9551 51.1367 11.562 49.9268 11.562H48.4092ZM64.5181 18.5347H62.0674V24H58.9912V9.07031H64.5386C66.3022 9.07031 67.6626 9.46338 68.6196 10.2495C69.5767 11.0356 70.0552 12.1465 70.0552 13.582C70.0552 14.6006 69.833 15.4517 69.3887 16.1353C68.9512 16.812 68.2847 17.3521 67.3892 17.7554L70.6191 23.8564V24H67.3174L64.5181 18.5347ZM62.0674 16.043H64.5488C65.3213 16.043 65.9194 15.8481 66.3433 15.4585C66.7671 15.062 66.979 14.5186 66.979 13.8281C66.979 13.124 66.7773 12.5703 66.374 12.167C65.9775 11.7637 65.3657 11.562 64.5386 11.562H62.0674V16.043ZM84.667 16.8735C84.667 18.3433 84.4072 19.6318 83.8877 20.7393C83.3682 21.8467 82.623 22.7012 81.6523 23.3027C80.6885 23.9043 79.5811 24.2051 78.3301 24.2051C77.0928 24.2051 75.9888 23.9077 75.0181 23.313C74.0474 22.7183 73.2954 21.8706 72.7622 20.77C72.229 19.6626 71.959 18.3911 71.9521 16.9556V16.2173C71.9521 14.7476 72.2153 13.4556 72.7417 12.3413C73.2749 11.2202 74.0234 10.3623 74.9873 9.76758C75.958 9.16602 77.0654 8.86523 78.3096 8.86523C79.5537 8.86523 80.6577 9.16602 81.6216 9.76758C82.5923 10.3623 83.3408 11.2202 83.8672 12.3413C84.4004 13.4556 84.667 14.7441 84.667 16.207V16.8735ZM81.5498 16.1968C81.5498 14.6313 81.2695 13.4419 80.709 12.6284C80.1484 11.8149 79.3486 11.4082 78.3096 11.4082C77.2773 11.4082 76.481 11.8115 75.9204 12.6182C75.3599 13.418 75.0762 14.5938 75.0693 16.1455V16.8735C75.0693 18.3979 75.3496 19.5806 75.9102 20.4214C76.4707 21.2622 77.2773 21.6826 78.3301 21.6826C79.3623 21.6826 80.1553 21.2793 80.709 20.4727C81.2627 19.6592 81.543 18.4766 81.5498 16.9248V16.1968ZM99.043 24H95.9668L89.9785 14.1768V24H86.9023V9.07031H89.9785L95.9771 18.9141V9.07031H99.043V24ZM110.712 17.5298H104.806V21.5288H111.737V24H101.729V9.07031H111.717V11.562H104.806V15.1201H110.712V17.5298Z" fill="white"/>
<path d="M116.803 21.5288H124.329V24H112.958V22.1953L120.34 11.562H112.968V9.07031H124.165V10.834L116.803 21.5288ZM129.538 21.5288H137.064V24H125.693V22.1953L133.076 11.562H125.703V9.07031H136.9V10.834L129.538 21.5288Z" fill="#002277"/>
</svg>
